<?xml version="1.0" encoding="UTF-8"?>
<svg width="752pt" height="752pt" version="1.1" viewBox="0 0 752 752" xmlns="http://www.w3.org/2000/svg">
 <defs>
  <clipPath id="a">
   <path d="m139.21 198h473.58v356h-473.58z"/>
  </clipPath>
 </defs>
 <g clip-path="url(#a)">
  <path d="m280.2 304.87 2.9609-2.8594-2.9609-2.8594v-0.003907c-3.8672-3.8711-3.8672-10.145 0-14.012 3.8711-3.8672 10.141-3.8672 14.012 0l2.8594 2.9609 2.8594-2.9609h0.003906c3.8672-3.8672 10.141-3.8672 14.008 0 3.8711 3.8672 3.8711 10.141 0 14.012l-2.9609 2.8594 2.9609 2.8594v0.003907c1.8672 1.8516 2.918 4.3711 2.918 7.0039 0 2.6289-1.0508 5.1523-2.918 7.0039-1.8516 1.8672-4.375 2.918-7.0039 2.918s-5.1523-1.0508-7.0039-2.918l-2.8594-2.9609-2.8594 2.9609h-0.003906c-1.8516 1.8672-4.375 2.918-7.0078 2.918-2.6289 0-5.1523-1.0508-7.0039-2.918-1.8672-1.8516-2.918-4.375-2.918-7.0039 0-2.6328 1.0508-5.1523 2.918-7.0039zm157.86 14.012v-0.003906c1.8555 1.8672 4.375 2.918 7.0078 2.918 2.6289 0 5.1523-1.0508 7.0039-2.918l2.8594-2.9609 2.8594 2.9609h0.003907c1.8516 1.8672 4.375 2.918 7.0039 2.918 2.6328 0 5.1523-1.0508 7.0078-2.918 1.8672-1.8516 2.918-4.375 2.918-7.0039 0-2.6328-1.0508-5.1523-2.918-7.0039l-2.9609-2.8594 2.9609-2.8594v-0.003907c3.8672-3.8711 3.8672-10.145 0-14.012-3.8711-3.8672-10.145-3.8672-14.012 0l-2.8594 2.9609-2.8594-2.9609h-0.003907c-3.8672-3.8672-10.141-3.8672-14.012 0-3.8672 3.8672-3.8672 10.141 0 14.012l2.9609 2.8594-2.9609 2.8594v0.003907c-1.8672 1.8516-2.918 4.3711-2.918 7.0039 0 2.6289 1.0508 5.1523 2.918 7.0039zm-111.39 91.656c2.2227-0.015625 4.3789-0.78125 6.1172-2.1719 12.254-9.832 27.5-15.191 43.211-15.191 15.715 0 30.957 5.3594 43.215 15.191 4.2617 3.1992 10.293 2.4375 13.625-1.7188 3.332-4.1602 2.7617-10.211-1.293-13.672-15.746-12.609-35.32-19.48-55.496-19.48s-39.75 6.8711-55.496 19.48c-4.2344 3.3867-4.9375 9.5547-1.582 13.812 1.8633 2.3555 4.6953 3.7344 7.6992 3.75zm138.12 123.33h-9.8672v-19.734h-157.86v19.734h-9.8672c-5.4453 0-9.8633 4.4141-9.8633 9.8633 0 5.4492 4.418 9.8672 9.8633 9.8672h177.59c5.4492 0 9.8672-4.418 9.8672-9.8672 0-5.4492-4.418-9.8633-9.8672-9.8633zm148-325.59v276.26c0 2.6172-1.0391 5.125-2.8906 6.9766-1.8516 1.8477-4.3594 2.8906-6.9766 2.8906h-453.85c-5.4492 0-9.8672-4.418-9.8672-9.8672v-276.26c0-5.4492 4.418-9.8633 9.8672-9.8633h453.85c2.6172 0 5.125 1.0391 6.9766 2.8867 1.8516 1.8516 2.8906 4.3594 2.8906 6.9766zm-29.602 19.734h-414.38v236.79h414.38z" fill="#d2d2d2"/>
 </g>
</svg>
