<svg height='300px' width='300px'  fill="#FFFFFF" xmlns="http://www.w3.org/2000/svg" xmlns:xlink="http://www.w3.org/1999/xlink" version="1.1" x="0px" y="0px" viewBox="0 0 100 100" enable-background="new 0 0 100 100" xml:space="preserve"><path fill="#FFFFFF" d="M85.3,18.1c0.5-1.9,0.1-3.9-1-5.6c-1.1-1.8-2.9-3-5.1-3.5c-4.2-0.9-8.5,1.7-9.4,5.7l-7,24  c-0.5,0-1.1,0-1.6,0.2c-0.4,0.1-0.7,0.2-1.1,0.3V9.3c0-4.2-3.5-7.6-7.9-7.6c-2.2,0-4.2,0.8-5.7,2.3c-1.4,1.4-2.2,3.3-2.2,5.2l0,24.1  c-0.6-0.6-1.4-1.1-2.2-1.4c-1.3-0.4-2.6-0.9-3.9-1.3c-1.4-0.5-2.9-0.3-4.2,0.4c-1.7,0.9-2.9,2.6-3.3,4.6c-0.3,1.3-0.5,2.6-0.8,3.9  c-0.6-0.7-1.5-1.3-2.4-1.7c-0.9-0.3-1.9-0.6-2.8-0.9c-1.3-0.5-2.7-0.3-4,0.4c-1.6,0.9-2.8,2.5-3.2,4.5c-1.3,6.1-1.6,12.4-0.9,18.7  c0.3,2.6,1.6,4.9,3.6,6.2c0.3,0.2,0.5,0.3,0.8,0.5c0.1,2.1,0.5,7.9,3.3,13.7c3.2,6.8,10.2,14.9,25.3,15.2c0.4,0,0.8,0,1.2,0  C82,96,84.1,69.5,84.1,69.2c0-2.2-2.9-6.9-8.1-14.9c0.1-0.1,0.1-0.2,0.1-0.3L85.3,18.1z M72.3,15.3c0.6-2.7,3.5-4.5,6.5-3.8  c1.5,0.3,2.7,1.1,3.5,2.4c0.7,1.1,0.9,2.4,0.6,3.6l-8.7,34.1c-0.5-0.7-1-1.5-1.4-2.2c-0.6-1-1.2-2-1.8-3c-1.6-2.8-3.3-5.7-5.6-6.9  L72.3,15.3z M33.1,36.1c0.3-1.3,1.1-2.4,2.1-3c0.4-0.2,0.9-0.4,1.4-0.4c0.3,0,0.6,0,0.8,0.1c1.3,0.4,2.6,0.9,3.9,1.3  c1.7,0.6,2.8,2.6,2.3,4.5c-1.5,6.4-1.8,12.9-0.9,19.4c0.4,3.2-1.4,6.2-4.2,7l0,0c-1.2,0.3-2.4,0.1-3.6-0.7c-1.6-1.1-2.7-2.9-2.9-5.1  C31,51.6,31.3,43.8,33.1,36.1z M19,60.1c-0.7-6-0.4-12,0.8-17.8c0.3-1.3,1-2.3,2-2.9c0.4-0.2,0.8-0.3,1.3-0.3c0.3,0,0.5,0,0.7,0.1  c1,0.3,1.9,0.6,2.8,0.9c1.6,0.6,2.6,2.4,2.2,4.2c-1,4.9-1.3,9.9-0.7,14.8c0.3,2.8-1.2,5.3-3.6,6l0,0c-1,0.3-2,0.1-3-0.6  C20.2,63.6,19.2,62,19,60.1z M50.8,93.5c-0.4,0-0.7,0-1.1,0C26.5,93,23.8,73.4,23.5,67.7c0.1,0,0.1,0,0.2,0c0.5,0,1-0.1,1.5-0.2  c2.4-0.7,4.3-2.6,5.1-5c0.7,1.6,1.8,3,3.2,3.9c1.2,0.8,2.6,1.2,3.9,1.2c0.6,0,1.1-0.1,1.7-0.2c4-1.1,6.6-5.3,6.1-9.7  c-0.4-3.2-0.5-6.3-0.4-9.5c0.2,0.2,0.5,0.3,0.7,0.3c0,0,0,0,0,0c0.7,0,1.2-0.6,1.3-1.2l0.1-38.2c0-1.3,0.5-2.5,1.5-3.4  c1-1,2.4-1.6,3.9-1.6c0,0,0,0,0.1,0c3,0,5.4,2.3,5.4,5.1v31.4c-0.9,0.8-1.7,1.8-2.4,3c-1.5,3-1.7,6.6-0.6,9.3l8.4,18.8  c0.3,0.6,1,0.9,1.7,0.6c0.6-0.3,0.9-1,0.6-1.7L57,52.1c-0.9-2-0.7-4.9,0.5-7.2c1-1.9,2.5-3.2,4.3-3.6c2.8-0.6,4.4,2,6.9,6.3  c0.6,1,1.2,2.1,1.9,3.1c0.8,1.2,1.6,2.5,2.4,3.7c3.8,5.9,8.6,13.2,8.6,14.7C81.5,70.1,79.6,93.5,50.8,93.5z"></path></svg>